<svg width="50" height="50" viewBox="0 0 50 50" fill="none" xmlns="http://www.w3.org/2000/svg">
<path d="M21.3164 47.9877L22.4725 48.1704V47V31.1806V30.1806H21.4725H16.7567V25.6369H21.4725H22.4725V24.6369V19.6495C22.4725 17.0107 23.2493 15.0864 24.5032 13.8235C25.7573 12.5604 27.6037 11.843 29.9708 11.843C31.1484 11.843 32.3656 11.9491 33.2974 12.0572C33.5612 12.0878 33.8005 12.1184 34.0079 12.1465V15.8527H32.17C30.5535 15.8527 29.3303 16.3668 28.5306 17.2973C27.755 18.1997 27.5037 19.3488 27.5037 20.3879V24.6369V25.6369H28.5037H33.5798L32.8868 30.1806H28.5037H27.5037V31.1806V47V48.1704L28.6598 47.9877C39.899 46.2119 48.4881 36.4306 48.4881 24.6369C48.4881 11.5853 37.9755 1 24.9881 1C12.0007 1 1.4881 11.5853 1.4881 24.6369C1.4881 36.4306 10.0772 46.2119 21.3164 47.9877Z" stroke="#E5E1E1" stroke-opacity="0.75" stroke-width="2"/>
</svg>
