<svg width="43" height="42" viewBox="0 0 43 42" fill="none" xmlns="http://www.w3.org/2000/svg">
<path d="M31.9881 1H11.9881C6.46525 1 1.9881 5.47715 1.9881 11V31C1.9881 36.5228 6.46525 41 11.9881 41H31.9881C37.5109 41 41.9881 36.5228 41.9881 31V11C41.9881 5.47715 37.5109 1 31.9881 1Z" stroke="#E5E1E1" stroke-opacity="0.75" stroke-width="2" stroke-linecap="round" stroke-linejoin="round"/>
<path d="M31.2205 20.0102C31.5084 22.0445 31.1768 24.1222 30.2726 25.9478C29.3684 27.7733 27.9378 29.2536 26.1843 30.1782C24.4307 31.1029 22.4435 31.4247 20.5053 31.098C18.5671 30.7713 16.7766 29.8126 15.3885 28.3583C14.0003 26.9041 13.0852 25.0283 12.7733 22.9978C12.4614 20.9673 12.7687 18.8855 13.6513 17.0484C14.5339 15.2114 15.9469 13.7127 17.6895 12.7654C19.432 11.8182 21.4153 11.4707 23.3572 11.7724C25.338 12.0801 27.1718 13.0471 28.5878 14.5305C30.0037 16.0139 30.9268 17.935 31.2205 20.0102Z" stroke="#E5E1E1" stroke-opacity="0.75" stroke-width="2" stroke-linecap="round" stroke-linejoin="round"/>
<path d="M32.9882 10H33.0077" stroke="#E5E1E1" stroke-opacity="0.75" stroke-width="5" stroke-linecap="round" stroke-linejoin="round"/>
</svg>
