<svg width="50" height="49" viewBox="0 0 50 49" fill="none" xmlns="http://www.w3.org/2000/svg">
<path d="M40.0897 28.7991V39.5714H35.42V30.125V30.1236C35.42 28.9217 35.42 27.2971 34.8981 25.9758C34.6257 25.2863 34.1941 24.6285 33.5101 24.1499C32.8238 23.6697 31.9687 23.4297 30.9546 23.4297C29.9558 23.4297 29.0959 23.625 28.378 24.0222C27.6544 24.4227 27.1347 24.9954 26.7719 25.6528C26.0722 26.9207 25.9468 28.5245 25.9468 29.9442V39.5714H21.2772V20.096H25.6756V22.029V23.029H26.6756H26.766H27.3679L27.6497 22.4971C28.3784 21.1216 30.227 19.5636 33.0841 19.5636C36.2121 19.5636 37.8439 20.573 38.7723 22.0451C39.7672 23.6227 40.0897 25.9289 40.0897 28.7991ZM44.2738 1H5.69234C3.36007 1 1.4881 2.91639 1.4881 5.24442V43.7556C1.4881 46.0836 3.36007 48 5.69234 48H44.2738C46.602 48 48.4881 46.0877 48.4881 43.7556V5.24442C48.4881 2.9123 46.602 1 44.2738 1ZM15.0986 39.5714H10.4189V20.096H15.0986V39.5714ZM12.7537 15.1629C11.1682 15.1629 9.88654 13.8746 9.88654 12.2958C9.88654 10.7169 11.1682 9.42857 12.7537 9.42857C14.3309 9.42857 15.6209 10.7186 15.6209 12.2958C15.6209 13.883 14.3409 15.1629 12.7537 15.1629Z" stroke="#E5E1E1" stroke-opacity="0.75" stroke-width="2"/>
</svg>
