<svg width="94" height="82" viewBox="0 0 94 82" fill="none" xmlns="http://www.w3.org/2000/svg">
<path d="M88.125 23.4286H5.875C2.63035 23.4286 0 20.8062 0 17.5714V5.85714C0 2.62235 2.63035 0 5.875 0H88.125C91.3697 0 94 2.62235 94 5.85714V17.5714C94 20.8062 91.3697 23.4286 88.125 23.4286ZM79.3125 7.32143C76.879 7.32143 74.9062 9.28815 74.9062 11.7143C74.9062 14.1404 76.879 16.1071 79.3125 16.1071C81.746 16.1071 83.7188 14.1404 83.7188 11.7143C83.7188 9.28815 81.746 7.32143 79.3125 7.32143ZM67.5625 7.32143C65.129 7.32143 63.1562 9.28815 63.1562 11.7143C63.1562 14.1404 65.129 16.1071 67.5625 16.1071C69.996 16.1071 71.9688 14.1404 71.9688 11.7143C71.9688 9.28815 69.996 7.32143 67.5625 7.32143ZM88.125 52.7143H5.875C2.63035 52.7143 0 50.0919 0 46.8571V35.1429C0 31.9081 2.63035 29.2857 5.875 29.2857H88.125C91.3697 29.2857 94 31.9081 94 35.1429V46.8571C94 50.0919 91.3697 52.7143 88.125 52.7143ZM79.3125 36.6071C76.879 36.6071 74.9062 38.5739 74.9062 41C74.9062 43.4261 76.879 45.3929 79.3125 45.3929C81.746 45.3929 83.7188 43.4261 83.7188 41C83.7188 38.5739 81.746 36.6071 79.3125 36.6071ZM67.5625 36.6071C65.129 36.6071 63.1562 38.5739 63.1562 41C63.1562 43.4261 65.129 45.3929 67.5625 45.3929C69.996 45.3929 71.9688 43.4261 71.9688 41C71.9688 38.5739 69.996 36.6071 67.5625 36.6071ZM88.125 82H5.875C2.63035 82 0 79.3776 0 76.1429V64.4286C0 61.1938 2.63035 58.5714 5.875 58.5714H88.125C91.3697 58.5714 94 61.1938 94 64.4286V76.1429C94 79.3776 91.3697 82 88.125 82ZM79.3125 65.8929C76.879 65.8929 74.9062 67.8596 74.9062 70.2857C74.9062 72.7119 76.879 74.6786 79.3125 74.6786C81.746 74.6786 83.7188 72.7119 83.7188 70.2857C83.7188 67.8596 81.746 65.8929 79.3125 65.8929ZM67.5625 65.8929C65.129 65.8929 63.1562 67.8596 63.1562 70.2857C63.1562 72.7119 65.129 74.6786 67.5625 74.6786C69.996 74.6786 71.9688 72.7119 71.9688 70.2857C71.9688 67.8596 69.996 65.8929 67.5625 65.8929Z" fill="#F5F5FA"/>
</svg>
