<svg width="50" height="42" viewBox="0 0 50 42" fill="none" xmlns="http://www.w3.org/2000/svg">
<path d="M48.9762 1.02242C46.8879 2.52819 44.5757 3.67986 42.1287 4.43309C40.8153 2.88939 39.0698 1.79526 37.1283 1.29867C35.1868 0.802083 33.143 0.926997 31.2732 1.65652C29.4034 2.38604 27.7979 3.68497 26.6738 5.37764C25.5497 7.0703 24.9613 9.07502 24.9881 11.1207V13.3499C21.1557 13.4515 17.3583 12.5826 13.934 10.8207C10.5096 9.05885 7.56471 6.45862 5.36147 3.25161C5.36147 3.25161 -3.36147 23.3144 16.2652 32.2312C11.774 35.3475 6.42383 36.9101 1 36.6896C20.6266 47.8356 44.6147 36.6896 44.6147 11.0538C44.6127 10.4329 44.5543 9.81347 44.4403 9.20357C46.6659 6.95987 48.2366 4.12705 48.9762 1.02242Z" stroke="#E5E1E1" stroke-opacity="0.75" stroke-width="2" stroke-linecap="round" stroke-linejoin="round"/>
</svg>
