<svg width="82" height="94" viewBox="0 0 82 94" fill="none" xmlns="http://www.w3.org/2000/svg">
<path d="M82 22.3876V23.5H54.6667V0H55.9605C57.3197 0 58.6234 0.464309 59.5845 1.29048L80.499 19.2718C81.46 20.0983 81.9999 21.219 82 22.3876ZM52.9583 29.375C50.1396 29.375 47.8333 27.3922 47.8333 24.9688V0H5.125C2.29451 0 0 1.97271 0 4.40625V89.5938C0 92.0273 2.29451 94 5.125 94H76.875C79.7055 94 82 92.0273 82 89.5938V29.375H52.9583ZM26.3096 73.5302C26.206 73.6252 26.0817 73.7017 25.9438 73.7554C25.8058 73.8091 25.6569 73.8388 25.5055 73.843C25.3542 73.8472 25.2033 73.8258 25.0616 73.7798C24.9199 73.7339 24.7901 73.6644 24.6797 73.5754L10.8281 62.4107C10.713 62.318 10.6213 62.2059 10.5586 62.0815C10.4959 61.9571 10.4636 61.823 10.4636 61.6874C10.4636 61.5518 10.4959 61.4177 10.5586 61.2933C10.6213 61.1689 10.713 61.0569 10.8281 60.9641L24.6797 49.7994C24.7901 49.7104 24.9199 49.6409 25.0616 49.595C25.2033 49.5491 25.3542 49.5276 25.5055 49.5318C25.6569 49.536 25.8058 49.5658 25.9438 49.6194C26.0817 49.6731 26.206 49.7496 26.3096 49.8446L30.4905 53.679C30.5962 53.7759 30.6781 53.89 30.7315 54.0147C30.7848 54.1393 30.8085 54.2719 30.8011 54.4046C30.7937 54.5372 30.7553 54.6673 30.6884 54.7869C30.6214 54.9066 30.5271 55.0135 30.4111 55.1013L21.7065 61.6875L30.4111 68.2737C30.5271 68.3615 30.6214 68.4684 30.6884 68.5881C30.7553 68.7077 30.7937 68.8378 30.8011 68.9704C30.8085 69.1031 30.7848 69.2357 30.7315 69.3603C30.6781 69.485 30.5962 69.5991 30.4905 69.696L26.3096 73.5302ZM37.2632 82.7978L31.4009 81.3346C31.1072 81.2612 30.8594 81.0906 30.712 80.8602C30.5646 80.6298 30.5296 80.3585 30.6148 80.106L43.7348 41.2528C43.8202 41.0003 44.0186 40.7872 44.2866 40.6605C44.5546 40.5338 44.8701 40.5037 45.1638 40.577L51.026 42.0402C51.1714 42.0765 51.3071 42.1371 51.4253 42.2185C51.5435 42.2999 51.6419 42.4005 51.7149 42.5146C51.7879 42.6287 51.834 42.754 51.8506 42.8834C51.8672 43.0128 51.8541 43.1438 51.8118 43.2688L38.6918 82.122C38.6497 82.2471 38.5793 82.3638 38.4847 82.4654C38.3901 82.5671 38.2731 82.6517 38.1404 82.7145C38.0078 82.7772 37.862 82.8169 37.7115 82.8312C37.561 82.8455 37.4087 82.8342 37.2632 82.7978ZM71.599 62.4107L57.7474 73.5754C57.637 73.6644 57.5072 73.7339 57.3655 73.7798C57.2238 73.8258 57.0729 73.8472 56.9216 73.843C56.7702 73.8388 56.6213 73.8091 56.4833 73.7554C56.3454 73.7017 56.221 73.6252 56.1175 73.5302L51.9363 69.6959C51.8307 69.599 51.7487 69.4848 51.6954 69.3602C51.642 69.2355 51.6184 69.1029 51.6258 68.9702C51.6332 68.8376 51.6715 68.7076 51.7385 68.5879C51.8055 68.4682 51.8998 68.3613 52.0158 68.2736L60.7206 61.6875L52.016 55.1013C51.9 55.0135 51.8057 54.9066 51.7387 54.7869C51.6717 54.6673 51.6334 54.5372 51.626 54.4046C51.6186 54.2719 51.6423 54.1393 51.6956 54.0147C51.7489 53.89 51.8309 53.7759 51.9365 53.679L56.1177 49.8446C56.2213 49.7496 56.3456 49.6731 56.4835 49.6194C56.6215 49.5658 56.7704 49.536 56.9218 49.5318C57.0731 49.5276 57.224 49.5491 57.3657 49.595C57.5074 49.6409 57.6372 49.7104 57.7477 49.7994L71.5992 60.9641C71.7143 61.0569 71.806 61.1689 71.8686 61.2933C71.9313 61.4177 71.9636 61.5519 71.9636 61.6875C71.9636 61.823 71.9312 61.9572 71.8685 62.0816C71.8058 62.2059 71.7141 62.318 71.599 62.4107Z" fill="#E5E1E1"/>
</svg>
