<?xml version="1.0" standalone="no"?>
<!DOCTYPE svg PUBLIC "-//W3C//DTD SVG 20010904//EN"
 "http://www.w3.org/TR/2001/REC-SVG-20010904/DTD/svg10.dtd">
<svg version="1.0" xmlns="http://www.w3.org/2000/svg"
 width="492.000000pt" height="492.000000pt" viewBox="0 0 492.000000 492.000000"
 preserveAspectRatio="xMidYMid meet">
<metadata>
Created by potrace 1.14, written by Peter Selinger 2001-2017
</metadata>
<g transform="translate(0.000000,492.000000) scale(0.100000,-0.100000)"
fill="#000000" stroke="none">
<path d="M2405 4902 c-28 -18 -70 -79 -511 -746 -66 -101 -139 -203 -162 -226
-23 -24 -44 -56 -47 -72 -4 -15 -10 -28 -15 -28 -5 0 -8 -8 -8 -17 1 -10 -71
-126 -159 -258 -199 -297 -374 -564 -388 -590 -11 -20 -78 -125 -143 -222 -45
-69 -61 -116 -62 -184 0 -82 24 -151 65 -188 l36 -31 254 0 c169 0 255 -3 255
-10 0 -6 -14 -57 -31 -113 -46 -152 -109 -366 -124 -417 -8 -25 -22 -74 -33
-110 -11 -36 -50 -166 -88 -290 -37 -124 -82 -256 -101 -295 -19 -38 -35 -82
-36 -97 -1 -14 -5 -24 -9 -22 -3 2 -13 -27 -22 -65 -9 -38 -20 -82 -26 -98
-10 -27 -9 -27 6 -8 10 12 15 14 12 5 -2 -8 -38 -129 -79 -267 -45 -156 -79
-253 -86 -253 -7 0 -13 -7 -13 -15 0 -8 4 -15 9 -15 4 0 11 -28 13 -63 6 -73
35 -137 77 -166 l29 -21 1454 0 c1358 0 1455 1 1478 17 58 41 77 87 81 198 2
64 -4 87 -63 255 -36 102 -118 336 -183 520 -64 184 -124 355 -132 379 -18 50
-55 71 -125 71 -82 0 -178 -74 -178 -137 0 -21 64 -214 175 -528 58 -163 115
-332 115 -340 0 -3 -529 -5 -1175 -5 -646 0 -1175 3 -1175 8 0 14 28 108 140
477 61 204 152 505 201 670 179 596 210 701 224 740 67 195 57 335 -29 399
-25 19 -46 21 -221 26 l-194 5 65 100 c36 55 97 150 136 210 150 232 220 331
270 386 65 70 93 109 94 132 1 16 -2 15 -24 -5 -13 -13 31 60 99 162 69 102
189 283 268 404 l143 218 50 -78 c28 -44 57 -87 65 -96 13 -15 13 -16 -8 -11
-20 6 -17 1 13 -26 21 -18 37 -36 37 -39 -3 -22 6 -38 50 -85 41 -43 228 -313
380 -547 20 -30 136 -205 259 -390 l223 -335 -546 -5 -547 -5 -28 -32 c-64
-71 -63 -50 -54 -1047 l9 -901 23 -38 c12 -21 22 -46 22 -57 0 -12 8 -18 23
-19 12 0 41 -3 65 -7 52 -8 80 9 120 68 l27 42 5 780 5 781 635 2 c486 2 641
6 659 15 79 42 114 244 57 330 -9 15 -19 43 -21 64 -3 29 -16 49 -63 98 -32
33 -103 129 -157 211 -54 83 -136 209 -183 280 -85 130 -175 264 -287 428 -33
48 -87 130 -120 183 -82 129 -231 350 -270 399 -17 22 -41 65 -54 96 -12 31
-34 67 -48 80 -14 13 -77 100 -140 192 -142 208 -181 236 -258 189z"/>
<path d="M1629 3783 l-24 -28 28 24 c25 23 32 31 24 31 -2 0 -14 -12 -28 -27z"/>
</g>
</svg>
